<?xml version="1.0" encoding="UTF-8"?>
<svg id="Layer_2" data-name="Layer 2" xmlns="http://www.w3.org/2000/svg" width="286.17" height="62.62" viewBox="0 0 286.17 62.62">
  <defs>
    <style>
      .cls-1 {
        fill: #00833e;
      }

      .cls-2 {
        fill: #fff;
      }
    </style>
  </defs>
  <g id="Layer_2-2" data-name="Layer 2">
    <g>
      <path class="cls-1" d="M51.46,0c-2.2,0-4,0-4,0,0,0-1.8,0-4,0H4C1.8,0,0,1.8,0,4V58.62c0,2.2,1.8,4,4,4H12.43c2.2,0,4-1.8,4-4V20.44c0-2.2,1.8-4,4-4h21.75c2.2,0,4,1.8,4,4v21.7c0,2.2-1.8,4-4,4h-12.52c-2.2,0-4,1.8-4,4v8.43c0,2.2,1.8,4,4,4h16.52s1.8,0,4,0h8.43c2.2,0,4-1.8,4-4V4.01C62.61,1.81,60.81,0,58.61,0h-7.16Z"/>
      <g>
        <path class="cls-2" d="M76.56,26.6h5.42v3.47h.12c1.51-1.83,5-4.05,10.43-4.05,8.92,0,13.25,5.83,13.25,12.44s-3.92,13.31-13.2,13.31c-5.42,0-8.5-1.69-10.24-3.95h-.12v13.49h-5.66V26.6Zm14.76,3.09c-6.15,0-9.1,4.67-9.1,9.25,0,4.1,2.65,9.16,9.04,9.16s8.62-5.44,8.5-9.3c.12-4.43-2.29-9.11-8.43-9.11Z"/>
        <path class="cls-2" d="M112.83,28.34c2.83-1.35,6.2-2.31,10.12-2.31,8.8,0,12.35,3.47,12.35,10.17v10.17c0,2.79,.12,4.1,.24,4.82h-5.3v-3.18h-.12c-1.32,1.49-4.34,3.76-9.52,3.76-6.63,0-11.27-2.32-11.27-7.67,0-6.17,8.43-8.1,14.28-8.1,2.23,0,3.8,0,6.02,.1,0-4.24-1.93-6.41-7.59-6.41-3.19,0-6.63,.96-8.92,2.51l-.3-3.86Zm16.81,11.14c-1.2,0-2.41-.1-3.61-.1-3.07,0-10.66,.38-10.66,4.72,0,2.6,3.13,4,5.72,4,5.6,0,8.55-2.79,8.55-6.46v-2.17Z"/>
        <path class="cls-2" d="M140.61,57.84c.72,.19,1.69,.39,2.65,.39,5.06,0,6.75-5.59,6.75-6.07,0-.54-.72-1.78-1.09-2.61l-10.42-22.94h6.2l8.25,20.34h.12l8.44-20.34h5.72l-11.33,25.11c-2.11,4.73-4.34,10.17-11.81,10.17-1.81,0-2.83-.19-3.86-.34l.36-3.71Z"/>
        <path class="cls-2" d="M190.56,30.75c-2.17-.72-4.34-1.06-6.14-1.06-6.33,0-9.88,4.53-9.88,9.21,0,4.39,2.96,9.2,10.24,9.2,1.93,0,4.34-.48,6.08-1.4l.42,4.05c-2.35,.86-5.06,1.01-7.11,1.01-9.28,0-15.67-5.84-15.67-12.87,0-7.47,6.27-12.87,15.67-12.87,2.29,0,5.24,.44,6.87,.96l-.48,3.76Z"/>
        <path class="cls-2" d="M209.42,26.02c9.34,0,15.6,5.4,15.6,12.87,0,7.03-6.38,12.87-15.6,12.87s-15.66-5.84-15.66-12.87c0-7.47,6.26-12.87,15.66-12.87Zm0,22.08c6.62,0,9.58-4.82,9.58-9.2,0-4.68-3.56-9.21-9.58-9.21s-9.64,4.53-9.64,9.21c0,4.39,2.96,9.2,9.64,9.2Z"/>
        <path class="cls-2" d="M230.57,26.6h5.3v3.57h.12c2.17-2.84,5.24-4.14,9.76-4.14,3.56,0,7.11,1.45,8.73,4.77,2.11-3.52,6.75-4.77,9.52-4.77,7.83,0,10.66,4.05,10.66,9.4v15.76h-5.66v-14.65c0-3.04-.9-6.84-5.48-6.84-5.78,0-8.07,4.53-8.07,9.11v12.39h-5.66v-14.65c0-3.04-.9-6.84-5.48-6.84-5.79,0-8.08,4.53-8.08,9.11v12.39h-5.66V26.6Z"/>
        <path class="cls-2" d="M277.83,30.87c0-2.3,1.87-4.17,4.17-4.17s4.17,1.87,4.17,4.17-1.87,4.17-4.17,4.17-4.17-1.87-4.17-4.17Zm7.32,0c0-1.95-1.41-3.36-3.15-3.36s-3.15,1.41-3.15,3.36,1.41,3.36,3.15,3.36,3.15-1.41,3.15-3.36Zm-4.76-2.38h1.76c1.13,0,1.75,.39,1.75,1.39,0,.81-.47,1.2-1.24,1.27l1.27,2.07h-.9l-1.22-2.03h-.53v2.03h-.88v-4.73Zm.88,2.02h.77c.52,0,.97-.07,.97-.7,0-.55-.51-.65-.96-.65h-.78v1.35Z"/>
      </g>
    </g>
  </g>
</svg>